<?xml version="1.0" encoding="iso-8859-1"?>
<!-- Generator: Adobe Illustrator 19.0.0, SVG Export Plug-In . SVG Version: 6.00 Build 0)  -->
<!--511.991 and 511.991 -->
<svg version="1.1" id="Capa_1" xmlns="http://www.w3.org/2000/svg" xmlns:xlink="http://www.w3.org/1999/xlink" x="0px" y="0px"
	 viewBox="0 0 88 25" style="enable-background:new 0 0 511.991 511.991;" xml:space="preserve">
<path style="fill:#F9DC6A;" d="M71.127,79.987v109.11H313.82V70.434c0-24.007-19.461-43.468-43.468-43.468h-17.648l-1.336-2.751
	C244.176,9.403,229.157,0,212.691,0h-61.577C106.938,0,71.127,35.812,71.127,79.987z"/>
<path style="fill:#E5AC51;" d="M270.351,26.966h-17.648l-1.336-2.751C244.176,9.403,229.157,0,212.691,0h-23.165
	c16.465,0,31.484,9.403,38.676,24.215l1.336,2.751h17.648c24.007,0,43.468,19.461,43.468,43.469v118.663h23.165V70.434
	C313.82,46.427,294.358,26.966,270.351,26.966z"/>
<path style="fill:#2BB4F3;" d="M323.797,485.355H61.149c-2.026,0-3.599-1.766-3.366-3.778l9.787-84.652
	c4.478-38.743,37.284-67.969,76.292-67.969h97.225c39.008,0,71.814,29.226,76.292,67.969l9.787,84.652
	C327.396,483.589,325.823,485.355,323.797,485.355z"/>
<g>
	<path style="fill:#1687C4;" d="M327.164,481.577l-9.786-84.652c-4.478-38.743-37.284-67.969-76.292-67.969h-30.352
		c39.008,0,71.814,29.226,76.292,67.969l9.786,84.652c0.233,2.012-1.341,3.778-3.366,3.778h30.352
		C325.823,485.354,327.396,483.589,327.164,481.577z"/>
	<path style="fill:#1687C4;" d="M115.084,485.354v-67.276c0-4.142-3.357-7.5-7.5-7.5s-7.5,3.358-7.5,7.5v67.276H115.084z"/>
	<path style="fill:#1687C4;" d="M284.864,485.354v-41.042c0-4.142-3.357-7.5-7.5-7.5s-7.5,3.358-7.5,7.5v41.042H284.864z"/>
</g>
<path style="fill:#F2A077;" d="M157.14,270.032v71.221c0,19.514,15.819,35.333,35.333,35.333l0,0
	c19.514,0,35.333-15.819,35.333-35.333v-71.221H157.14z"/>
<path style="fill:#FFCCAA;" d="M330.134,184.993v10.403c0,12.143-9.844,21.988-21.988,21.988H286.49
	c-1.286,24.85-12.197,47.17-29.092,63.266c-16.895,16.086-39.754,25.96-64.926,25.96c-50.343,0-91.456-39.505-94.018-89.226H76.8
	c-12.143,0-21.988-9.844-21.988-21.988v-10.403c0-12.143,9.844-21.988,21.988-21.988h21.521v-39.308h79.041
	c37.603,0,68.849-27.186,75.145-62.981c0.547-3.107,4.252-4.39,6.592-2.274c16.907,15.293,27.526,37.409,27.526,62.008v42.554
	h21.521C320.29,163.005,330.134,172.849,330.134,184.993z"/>
<path style="fill:#F2A077;" d="M308.146,163.005h-21.52v-42.554c0-24.599-10.619-46.715-27.527-62.008
	c-2.34-2.116-6.045-0.834-6.592,2.274c-0.916,5.205-2.374,10.221-4.287,15.005c8.207,12.934,12.965,28.274,12.965,44.73v42.554
	l-0.135,54.378c-1.286,24.85-12.197,47.17-29.092,63.266c-13.998,13.328-32.096,22.37-52.204,25.086
	c4.162,0.562,8.404,0.873,12.72,0.873c25.172,0,48.03-9.874,64.926-25.96c16.895-16.097,27.806-38.416,29.092-63.266h21.656
	c12.143,0,21.988-9.844,21.988-21.988v-10.403C330.134,172.849,320.29,163.005,308.146,163.005z"/>
<g>
	<path style="fill:#475D6D;" d="M192.473,251.414c-12.175,0-23.634-4.743-32.269-13.356c-4.363-4.364-7.732-9.447-10.021-15.114
		c-1.55-3.841,0.307-8.211,4.147-9.762c3.844-1.553,8.212,0.307,9.763,4.147c1.528,3.788,3.786,7.19,6.711,10.115
		c5.796,5.782,13.493,8.969,21.668,8.969c12.537,0,23.678-7.496,28.383-19.096c1.557-3.838,5.932-5.688,9.769-4.131
		c3.839,1.557,5.688,5.931,4.132,9.769C227.745,240.244,211.148,251.414,192.473,251.414z"/>
	<path style="fill:#475D6D;" d="M145.34,176.6c-4.143,0-7.5-3.358-7.5-7.5v-4.548c0-4.142,3.357-7.5,7.5-7.5s7.5,3.358,7.5,7.5
		v4.548C152.84,173.242,149.482,176.6,145.34,176.6z"/>
	<path style="fill:#475D6D;" d="M239.606,176.6c-4.143,0-7.5-3.358-7.5-7.5v-4.548c0-4.142,3.357-7.5,7.5-7.5s7.5,3.358,7.5,7.5
		v4.548C247.106,173.242,243.749,176.6,239.606,176.6z"/>
</g>
<rect x="372.412" y="410.275" transform="matrix(0.5 0.866 -0.866 0.5 565.7026 -130.4756)" style="fill:#EBEAE6;" width="46.872" height="28.814"/>
<rect x="407.943" y="464.712" transform="matrix(-0.5 -0.866 0.866 -0.5 226.0559 1097.6373)" style="fill:#8BA7BC;" width="43.882" height="37.701"/>
<rect x="398.386" y="481.265" transform="matrix(-0.5 -0.866 0.866 -0.5 206.9418 1097.6395)" style="fill:#718A9E;" width="43.882" height="15.633"/>
<path style="fill:#D2F5FF;" d="M441.411,444.902l-5.54-9.595c-1.595-2.762-5.126-3.708-7.888-2.114l-40.81,23.561
	c-2.762,1.595-3.708,5.126-2.114,7.888l5.54,9.595c1.595,2.762,5.126,3.708,7.888,2.114l40.81-23.561
	C442.059,451.196,443.006,447.664,441.411,444.902z"/>
<path style="fill:#9CC9D3;" d="M387.174,456.755l16.326-9.426c-2.762,1.595-3.708,5.126-2.114,7.888l5.54,9.595
	c1.595,2.762,5.126,3.708,7.888,2.114l-16.326,9.426c-2.762,1.595-6.294,0.648-7.888-2.114l-5.54-9.595
	C383.466,461.881,384.412,458.349,387.174,456.755z"/>
<circle style="fill:#75DC5E;" cx="354.146" cy="352.43" r="86.79"/>
<circle style="fill:#D2F5FF;" cx="354.146" cy="352.43" r="63.44"/>
<g>
</g>
<g>
</g>
<g>
</g>
<g>
</g>
<g>
</g>
<g>
</g>
<g>
</g>
<g>
</g>
<g>
</g>
<g>
</g>
<g>
</g>
<g>
</g>
<g>
</g>
<g>
</g>
<g>
</g>
</svg>
