<svg height="511pt" viewBox="0 0 511 511.99975" width="511pt" xmlns="http://www.w3.org/2000/svg"><path d="m321.40625 358.378906 37.46875-37.464844 41.265625 41.269532-37.464844 37.464844zm0 0" fill="#b7c1c6"/><path d="m507.644531 480.289062-26.859375 26.855469c-6.472656 6.472657-16.96875 6.472657-23.441406 0l-93.488281-93.488281c-6.472657-6.472656-6.472657-16.96875 0-23.441406l26.855469-26.855469c6.472656-6.476563 16.96875-6.476563 23.441406 0l93.492187 93.488281c6.472657 6.472656 6.472657 16.96875 0 23.441406zm0 0" fill="#5f9eeb"/><path d="m414.15625 363.359375 93.488281 93.484375c6.472657 6.472656 6.472657 16.96875 0 23.441406l-15.988281 15.984375c6.472656-6.472656 6.472656-16.96875 0-23.441406l-93.484375-93.484375c-6.472656-6.472656-16.96875-6.472656-23.441406 0l15.984375-15.984375c6.472656-6.476563 16.96875-6.476563 23.441406 0zm0 0" fill="#3a82d0"/><path d="m368.695312 330.730469c-5.40625 6.921875-11.269531 13.566406-17.582031 19.882812-6.316406 6.3125-12.960937 12.175781-19.882812 17.585938l-9.820313-9.820313 37.46875-37.46875zm0 0" fill="#93a3af"/><path d="m401.019531 200.261719c0 110.597656-89.660156 200.257812-200.257812 200.257812-110.601563 0-200.261719-89.660156-200.261719-200.257812 0-110.601563 89.660156-200.261719 200.261719-200.261719 110.597656 0 200.257812 89.660156 200.257812 200.261719zm0 0" fill="#5f9eeb"/><path d="m200.761719 373.003906c-46.144531 0-89.523438-17.96875-122.148438-50.59375-67.351562-67.351562-67.351562-176.945312 0-244.296875 32.625-32.628906 76.003907-50.597656 122.148438-50.597656 46.140625 0 89.519531 17.96875 122.144531 50.597656 67.351562 67.351563 67.351562 176.941407 0 244.296875-32.625 32.625-76.003906 50.59375-122.144531 50.59375zm0 0" fill="#3a82d0"/><path d="m361.140625 200.261719c0 88.574219-71.804687 160.378906-160.378906 160.378906-88.578125 0-160.382813-71.804687-160.382813-160.378906 0-88.578125 71.804688-160.382813 160.382813-160.382813 88.574219 0 160.378906 71.804688 160.378906 160.382813zm0 0" fill="#9ff4e4"/><path d="m298.304688 183.628906c.007812.640625.007812 1.289063 0 1.9375-.0625 6.183594-.722657 12.464844-2.019532 18.792969l-.019531.113281-4.792969 23.3125h-182.105468l-4.808594-23.425781c-1.371094-6.6875-2.03125-13.332031-2.03125-19.851563 0-52.664062 42.785156-97.652343 97.890625-97.652343 39.371093 0 72.449219 22.964843 88.128906 55.28125 3.339844 6.871093 5.882813 14.164062 7.542969 21.757812.113281.523438.226562 1.050781.328125 1.585938 1.195312 5.902343 1.835937 11.96875 1.886719 18.148437zm0 0" fill="#627687"/><g fill="#455e6d"><path d="m122.015625 193.085938c-3.746094-.039063-7.058594 2.648437-7.691406 6.449218-.699219 4.214844 2.152343 8.191406 6.355469 8.890625 3.355468.558594 8.425781 1.144531 14.601562 1.070313v-15.445313c-5.570312.066407-10.164062-.457031-13.265625-.964843zm0 0"/><path d="m265.769531 199.0625v15.519531c10.539063-1.84375 20.75-5.210937 30.496094-10.109375l.019531-.113281c1.203125-5.875 1.851563-11.714844 1.988282-17.46875-10.988282 6.363281-21.941407 10.183594-32.503907 12.171875zm0 0"/><path d="m296.417969 165.476562-30.101563-19.179687c-3.59375-2.296875-4.65625-7.066406-2.359375-10.671875 2.296875-3.597656 7.078125-4.65625 10.671875-2.359375l13.917969 8.867187c3.339844 6.871094 5.882813 14.167969 7.542969 21.757813.113281.527344.226562 1.050781.328125 1.585937zm0 0"/></g><path d="m301.636719 236.957031c0 12.796875-10.375 23.171875-23.175781 23.171875-12.796876 0-23.171876-10.375-23.171876-23.171875 0-12.800781 10.375-23.175781 23.171876-23.175781 12.800781 0 23.175781 10.375 23.175781 23.175781zm0 0" fill="#f8c298"/><path d="m145.554688 236.957031c0 12.796875-10.375 23.171875-23.175782 23.171875-12.796875 0-23.171875-10.375-23.171875-23.171875 0-12.800781 10.375-23.175781 23.171875-23.175781 12.800782 0 23.175782 10.375 23.175782 23.175781zm0 0" fill="#f8c298"/><path d="m200.421875 314.570312c-31.5 0-58.070313-23.457031-61.976563-54.714843l-11.527343-92.289063h147.003906l-11.527344 92.289063c-3.902343 31.257812-30.472656 54.714843-61.972656 54.714843zm0 0" fill="#ffd6c0"/><path d="m117.675781 192.183594s31.734375 8.964844 60.878907-12.3125c0 0 65.085937 46.148437 128.414062 1.445312 3.214844-2.265625 3.132812-7.054687-.183594-9.171875l-39.339844-25.070312h-149.769531zm0 0" fill="#627687"/><path d="m166.496094 243.355469c-4.167969 0-7.605469-3.320313-7.71875-7.515625l-.101563-3.671875c-.117187-4.265625 3.246094-7.820313 7.511719-7.9375 4.253906-.121094 7.820312 3.246093 7.9375 7.511719l.101562 3.675781c.117188 4.265625-3.246093 7.816406-7.511718 7.933593-.074219.003907-.148438.003907-.21875.003907zm0 0" fill="#455e6d"/><path d="m234.4375 243.355469c-4.167969 0-7.605469-3.320313-7.71875-7.515625l-.101562-3.671875c-.117188-4.265625 3.246093-7.820313 7.511718-7.9375 4.277344-.121094 7.820313 3.246093 7.9375 7.511719l.097656 3.675781c.117188 4.265625-3.242187 7.816406-7.511718 7.933593-.070313.003907-.144532.003907-.214844.003907zm0 0" fill="#455e6d"/><path d="m200.421875 275.910156c-10.613281 0-20.671875-5.140625-26.910156-13.753906-2.503907-3.457031-1.730469-8.285156 1.722656-10.789062 3.460937-2.503907 8.289063-1.730469 10.792969 1.726562 3.335937 4.609375 8.71875 7.363281 14.390625 7.363281 5.675781 0 11.054687-2.753906 14.394531-7.363281 2.503906-3.457031 7.332031-4.226562 10.789062-1.726562 3.457032 2.503906 4.230469 7.335937 1.726563 10.789062-6.234375 8.613281-16.292969 13.753906-26.90625 13.753906zm0 0" fill="#e39f6e"/><path d="m435.476562 87.886719c0 35.984375-29.171874 65.15625-65.15625 65.15625-35.988281 0-65.160156-29.171875-65.160156-65.15625 0-35.988281 29.171875-65.160157 65.160156-65.160157 35.984376 0 65.15625 29.171876 65.15625 65.160157zm0 0" fill="#eb5777"/><path d="m363.644531 80.160156h-3.933593v-3.9375c0-4.265625-3.460938-7.726562-7.726563-7.726562-4.269531 0-7.726563 3.460937-7.726563 7.726562v3.9375h-3.9375c-4.265624 0-7.726562 3.457032-7.726562 7.722656 0 4.269532 3.460938 7.726563 7.726562 7.726563h3.9375v3.9375c0 4.265625 3.460938 7.726563 7.726563 7.726563 4.269531 0 7.726563-3.460938 7.726563-7.726563v-3.9375h3.933593c4.269531 0 7.726563-3.457031 7.726563-7.726563 0-4.265624-3.457032-7.722656-7.726563-7.722656zm0 0" fill="#ebeef2"/><path d="m400.613281 99.949219v-31.839844c0-2.703125-1.410156-5.207031-3.71875-6.605469-2.3125-1.402344-5.183593-1.492187-7.578125-.246094l-7.777344 4.058594c-3.785156 1.972656-5.25 6.640625-3.277343 10.425782 1.378906 2.640624 4.070312 4.152343 6.855469 4.152343h.042968v20.054688c-4.128906.15625-7.429687 3.542969-7.429687 7.710937 0 4.265625 3.460937 7.726563 7.726562 7.726563h14.859375c4.265625 0 7.726563-3.460938 7.726563-7.726563 0-4.164062-3.300781-7.550781-7.429688-7.710937zm0 0" fill="#ebeef2"/></svg>