<svg id="Layer_5" enable-background="new 0 0 64 64" height="512" viewBox="0 0 64 64" width="512" xmlns="http://www.w3.org/2000/svg" xmlns:xlink="http://www.w3.org/1999/xlink"><linearGradient id="SVGID_1_" gradientUnits="userSpaceOnUse" x1="32" x2="32" y1="63" y2=".999"><stop offset="0" stop-color="#9f2fff"/><stop offset="1" stop-color="#0bb1d3"/></linearGradient><path d="m44 21c-1.654 0-3 1.346-3 3s1.346 3 3 3 3-1.346 3-3-1.346-3-3-3zm0 4c-.552 0-1-.449-1-1s.448-1 1-1 1 .449 1 1-.448 1-1 1zm0-8c1.87 0 3.627.728 4.949 2.05l-1.414 1.414c-.944-.944-2.2-1.464-3.535-1.464s-2.591.52-3.535 1.464l-1.414-1.414c1.322-1.322 3.079-2.05 4.949-2.05zm7.778-.778-1.414 1.414c-3.51-3.509-9.219-3.509-12.729 0l-1.414-1.414c4.29-4.289 11.268-4.289 15.557 0zm-7.778-9.222c-7.168 0-13 5.832-13 13s5.832 13 13 13 13-5.832 13-13-5.832-13-13-13zm0 24c-6.065 0-11-4.935-11-11s4.935-11 11-11 11 4.935 11 11-4.935 11-11 11zm-21 12h2v2h-2zm6 0v2h-2v-2zm-10 0h2v2h-2zm4-8h2v2h-2zm4 0h2v2h-2zm-8 0h2v2h-2zm37.67-29.159c-4.079-3.653-9.353-5.326-14.835-4.722-8.478.94-15.292 7.56-16.591 15.92-.422-.023-.837-.039-1.244-.039-6.322 0-12.432 2.644-16.763 7.252-4.392 4.674-6.591 10.788-6.191 17.216.728 11.728 10.513 21.182 22.273 21.522.22.006.438.01.657.01h.014.009c.013 0 .026-.002.04-.002 8.361-.024 16.14-4.666 20.149-12.012 1.551-.073 2.901-1.027 3.468-2.487l2.785-7.162c.914-2.35 2.509-4.388 4.61-5.894 4.977-3.564 7.949-9.337 7.949-15.443 0-5.396-2.308-10.557-6.33-14.159zm-31.638 13.188c-.178 3.55.603 6.973 2.22 9.971h-10.033c1.511-6.23 4.203-10 6.781-10 .338 0 .682.011 1.032.029zm-.923 41.956c-.069 0-.137.002-.206.002-2.548-.092-5.192-3.835-6.684-9.987h13.562c-1.49 6.142-4.128 9.882-6.672 9.985zm-7.319-11.985c-.445-2.39-.718-5.076-.77-8h15.959c-.052 2.924-.325 5.61-.77 8zm-13.76-10c.129-2.807.802-5.513 1.986-8h9.753c-.444 2.464-.707 5.158-.758 8zm30.959 2h3.423c.048.113.102.224.146.338l2.785 7.16c.068.175.15.341.239.501h-7.351c.445-2.463.708-5.157.758-7.999zm-.016-2c-.017-.955-.057-1.901-.124-2.838.976.837 1.816 1.792 2.5 2.838zm-2.272-4.536c.16 1.477.243 2.999.272 4.536h-15.952c.052-2.924.325-5.61.77-8h11.705c.905 1.267 1.981 2.428 3.205 3.464zm-23.007-8.842c2.933-3.121 6.63-5.204 10.691-6.106-1.794 2.101-3.26 5.404-4.207 9.484h-9.074c.74-1.195 1.603-2.327 2.59-3.378zm-5.656 15.378h10.973c.05 2.842.314 5.536.758 8h-9.719c-1.131-2.351-1.839-4.935-2.008-7.656-.007-.116.001-.229-.004-.344zm3.126 10h9.016c.945 4.076 2.41 7.377 4.202 9.478-5.535-1.266-10.279-4.764-13.218-9.478zm22.474 9.456c1.784-2.103 3.24-5.394 4.182-9.456h9.056c-2.977 4.819-7.792 8.205-13.238 9.456zm25.25-26.639c-2.419 1.732-4.255 4.082-5.31 6.795l-2.785 7.162c-.29.745-.993 1.226-1.793 1.226s-1.503-.481-1.793-1.226l-2.785-7.16c-1.05-2.702-2.899-5.061-5.347-6.823-4.982-3.587-7.596-9.391-6.989-15.524.781-7.909 7.077-14.285 14.97-15.159.66-.073 1.316-.109 1.967-.109 4.195 0 8.154 1.504 11.313 4.333 3.6 3.222 5.664 7.84 5.664 12.668 0 5.463-2.659 10.628-7.112 13.817z" fill="url(#SVGID_1_)"/></svg>