<svg height="512pt" viewBox="0 0 512 512.00018" width="512pt" xmlns="http://www.w3.org/2000/svg"><path d="m223.417969 352.1875-159.511719 159.8125-31.804688-32.101562-32.101562-31.804688 159.8125-159.507812zm0 0" fill="#ff9100"/><path d="m223.417969 352.1875-159.511719 159.8125-31.804688-32.101562 159.511719-159.511719zm0 0" fill="#ff641a"/><path d="m454.734375 57.265625c-76.207031-76.503906-199.214844-76.203125-275.421875 0-76.507812 76.207031-76.203125 199.214844 0 275.421875 76.207031 76.503906 199.214844 76.207031 275.421875 0 76.503906-76.207031 76.203125-199.214844 0-275.421875zm0 0" fill="#537983"/><path d="m454.734375 332.6875c-76.207031 76.207031-199.214844 76.503906-275.421875 0l275.421875-275.421875c76.203125 76.207031 76.503906 199.214844 0 275.421875zm0 0" fill="#3e5959"/><path d="m481.761719 194.976562c0 90.984376-73.757813 164.738282-164.738281 164.738282-90.984376 0-164.738282-73.753906-164.738282-164.738282 0-90.980468 73.753906-164.738281 164.738282-164.738281 90.980468 0 164.738281 73.757813 164.738281 164.738281zm0 0" fill="#64e1dc"/><path d="m200.535156 311.464844c29.8125 29.8125 70.996094 48.25 116.488282 48.25 90.980468 0 164.738281-73.753906 164.738281-164.738282 0-45.492187-18.4375-86.675781-48.25-116.488281zm0 0" fill="#00c8c8"/><path d="m332.023438 89.96875v105.007812c0 36.300782-25.800782 66.605469-60.003907 73.507813v84.601563c-10.203125-3-20.402343-6.898438-30-12v-72.601563c-34.203125-6.902344-60.007812-37.207031-60.007812-73.507813v-94.207031c2.703125-3.597656 5.003906-7.199219 8.003906-10.800781h22v75.007812h30.003906v-75.007812h30v75.007812h30.003907v-75.007812zm0 0" fill="#e0f4ff"/><path d="m452.03125 289.113281v-188.273437c-2.648438-3.789063-4.992188-7.265625-8-10.871094h-7c-41.355469 0-75.003906 33.648438-75.003906 75.007812v135.007813h60.003906v21.117187c3.851562-3.214843 8-5.878906 11.617188-9.496093 7.003906-7.007813 12.902343-14.65625 18.382812-22.492188zm0 0" fill="#bbdcff"/><path d="m363.984375 148.015625 56.089844-56.089844c-27.757813 6.445313-49.644531 28.332031-56.089844 56.089844zm0 0" fill="#e0f4ff"/><path d="m332.023438 179.976562v15c0 36.300782-25.800782 66.605469-60.003907 73.507813v84.601563c-10.203125-3-20.402343-6.898438-30-12v-71.105469zm0 0" fill="#bbdcff"/></svg>